<?xml version="1.0" standalone="no"?>
<!DOCTYPE svg PUBLIC "-//W3C//DTD SVG 20010904//EN"
 "http://www.w3.org/TR/2001/REC-SVG-20010904/DTD/svg10.dtd">
<svg version="1.0" xmlns="http://www.w3.org/2000/svg"
 width="600.000000pt" height="600.000000pt" viewBox="0 0 600.000000 600.000000"
 preserveAspectRatio="xMidYMid meet">
<metadata>
Created by potrace 1.16, written by Peter Selinger 2001-2019
</metadata>
<g transform="translate(0.000000,600.000000) scale(0.100000,-0.100000)"
fill="#000000" stroke="none">
<path d="M2567 3353 c-4 -3 -7 -88 -7 -187 0 -201 10 -244 66 -283 82 -59 232
-56 313 4 56 43 62 70 59 281 l-3 187 -35 0 -35 0 -5 -180 c-3 -123 -9 -187
-18 -203 -13 -23 -83 -61 -112 -62 -36 0 -94 24 -116 47 -23 25 -24 31 -24
195 0 98 -4 178 -10 189 -10 19 -59 27 -73 12z"/>
<path d="M3205 3345 c-53 -19 -75 -49 -75 -107 0 -72 35 -106 164 -158 117
-47 142 -66 132 -105 -9 -35 -84 -70 -131 -61 -44 9 -84 42 -101 83 -12 27
-20 33 -44 33 -75 0 -47 -110 40 -159 112 -63 288 -22 320 75 29 87 -14 142
-156 200 -52 21 -103 46 -114 56 -29 27 -25 55 10 73 59 31 141 10 173 -45 21
-34 48 -45 77 -30 44 24 7 109 -63 140 -51 24 -172 26 -232 5z"/>
<path d="M3666 3344 c-12 -31 -7 -479 6 -492 18 -18 56 -14 68 7 11 21 14 439
4 479 -5 17 -14 22 -39 22 -21 0 -35 -6 -39 -16z"/>
<path d="M3917 3354 c-4 -4 -7 -116 -7 -249 0 -261 2 -270 52 -263 23 3 23 4
28 181 l5 178 144 -181 c127 -161 146 -181 170 -178 l26 3 0 255 0 255 -35 0
-35 0 -5 -175 -5 -175 -140 175 c-106 132 -147 176 -166 178 -14 2 -28 0 -32
-4z"/>
<path d="M4591 3346 c-50 -18 -106 -70 -131 -122 -32 -65 -32 -183 0 -248 56
-117 185 -162 345 -121 32 9 65 21 72 27 14 11 19 200 7 232 -9 24 -212 24
-221 0 -12 -33 11 -49 76 -52 l61 -3 0 -59 c0 -72 -12 -82 -106 -84 -49 -1
-69 3 -91 20 -116 86 -103 273 22 334 70 34 119 24 171 -34 40 -46 69 -57 92
-34 37 37 -25 122 -105 146 -51 15 -147 14 -192 -2z"/>
<path d="M2122 3338 c-17 -17 -17 -469 0 -486 7 -7 22 -12 35 -12 33 0 43 34
43 140 l0 89 111 3 c90 2 114 6 122 19 6 9 7 24 4 33 -5 13 -24 16 -122 16
l-115 0 0 70 0 69 133 3 132 3 0 30 0 30 -165 3 c-120 2 -169 -1 -178 -10z"/>
<path d="M2247 2604 c-4 -4 -7 -76 -7 -161 l0 -153 115 0 c106 0 115 1 115 19
0 26 -19 31 -106 31 l-73 0 -3 132 c-3 110 -6 133 -18 136 -9 1 -19 0 -23 -4z"/>
<path d="M2891 2592 c-53 -27 -74 -63 -79 -136 -6 -87 16 -132 75 -158 33 -15
55 -18 86 -13 72 13 139 103 85 113 -10 2 -31 -12 -49 -32 -46 -54 -103 -47
-135 16 -55 107 69 240 138 148 38 -53 89 -28 53 26 -33 51 -113 68 -174 36z"/>
<path d="M3869 2601 c-72 -23 -99 -66 -99 -156 0 -107 47 -159 146 -159 92 0
144 56 144 159 0 65 -21 112 -62 139 -29 19 -95 28 -129 17z m103 -66 c68 -67
30 -205 -56 -205 -44 0 -73 24 -87 69 -34 115 68 211 143 136z"/>
<path d="M4124 2597 c-2 -7 -3 -80 -2 -162 3 -142 4 -150 23 -150 19 0 20 8
23 108 l3 108 87 -108 c48 -59 94 -108 102 -108 13 0 15 26 15 160 0 153 -1
160 -20 160 -18 0 -20 -8 -25 -107 l-5 -107 -88 109 c-86 108 -103 123 -113
97z"/>
<path d="M4495 2598 c-3 -8 -4 -81 -3 -163 3 -142 4 -150 23 -150 19 0 20 7
20 160 0 144 -2 160 -18 163 -9 2 -19 -3 -22 -10z"/>
<path d="M4710 2592 c-54 -27 -80 -74 -80 -144 0 -67 20 -119 54 -141 59 -39
147 -28 191 25 51 61 7 94 -46 34 -46 -54 -103 -47 -135 16 -55 107 69 240
138 148 38 -53 89 -28 53 26 -33 51 -113 67 -175 36z"/>
<path d="M5020 2600 c-40 -10 -60 -33 -60 -70 0 -42 25 -66 100 -96 40 -16 76
-37 81 -46 14 -25 -22 -58 -63 -58 -37 1 -59 14 -77 48 -6 12 -21 22 -31 22
-15 0 -20 -7 -20 -29 0 -60 90 -103 170 -81 54 15 80 42 80 83 0 47 -15 62
-102 101 -58 26 -78 40 -78 55 0 22 19 31 61 31 21 0 39 -10 59 -31 30 -34 60
-34 60 -2 0 62 -84 95 -180 73z"/>
<path d="M1950 2445 l0 -155 105 0 c88 0 107 3 112 16 9 25 -16 34 -94 34
l-73 0 0 45 0 45 75 0 c68 0 75 2 75 20 0 18 -7 20 -75 20 l-75 0 0 45 0 45
86 0 c76 0 85 2 82 18 -3 15 -18 17 -111 20 l-107 3 0 -156z"/>
<path d="M2530 2445 l0 -155 105 0 c88 0 107 3 112 16 9 25 -16 34 -94 34
l-73 0 0 45 0 45 75 0 c68 0 75 2 75 20 0 18 -7 20 -75 20 l-75 0 0 45 0 45
86 0 c76 0 85 2 82 18 -3 15 -18 17 -111 20 l-107 3 0 -156z"/>
<path d="M3120 2581 c0 -23 19 -31 71 -31 l38 0 3 -132 c3 -125 4 -133 23
-133 19 0 20 8 23 133 l3 132 40 0 c49 0 80 15 73 35 -5 12 -31 15 -140 15
-125 0 -134 -1 -134 -19z"/>
<path d="M3452 2443 c3 -150 4 -158 23 -158 18 0 20 8 23 63 l3 62 50 0 c70 0
86 -12 105 -76 12 -41 20 -54 32 -52 25 5 22 90 -4 125 l-20 26 23 23 c32 32
31 87 -2 119 -23 23 -31 25 -130 25 l-106 0 3 -157z"/>
</g>
</svg>
